<?xml version="1.0" encoding="UTF-8"?>
<svg id="_Слой_2" data-name="Слой 2" xmlns="http://www.w3.org/2000/svg" viewBox="0 0 71.04 74.4">
  <defs>
    <style>
      .cls-1 {
        fill: #36abd7;
      }

      .cls-1, .cls-2, .cls-3, .cls-4, .cls-5, .cls-6, .cls-7, .cls-8, .cls-9, .cls-10, .cls-11, .cls-12, .cls-13, .cls-14, .cls-15, .cls-16, .cls-17, .cls-18, .cls-19, .cls-20, .cls-21, .cls-22, .cls-23, .cls-24, .cls-25, .cls-26, .cls-27, .cls-28, .cls-29, .cls-30 {
        stroke-width: 0px;
      }

      .cls-2 {
        fill: #94c7df;
      }

      .cls-3 {
        fill: #fefefe;
      }

      .cls-4 {
        fill: #8ac6df;
      }

      .cls-5 {
        fill: #88c6e0;
      }

      .cls-6 {
        fill: #21a9cc;
      }

      .cls-7 {
        fill: #1f3557;
      }

      .cls-8 {
        fill: #60c0cf;
      }

      .cls-9 {
        fill: #1b3257;
      }

      .cls-10 {
        fill: #fcfdfd;
      }

      .cls-11 {
        fill: #8dc5dc;
      }

      .cls-12 {
        fill: #bad5e3;
      }

      .cls-13 {
        fill: #1c2a48;
      }

      .cls-14 {
        fill: #16a9d4;
      }

      .cls-15 {
        fill: #25b0c6;
      }

      .cls-16 {
        fill: #223658;
      }

      .cls-17 {
        fill: #17a4d8;
      }

      .cls-18 {
        fill: #15aad2;
      }

      .cls-19 {
        fill: #8dc6de;
      }

      .cls-20 {
        fill: #17aad4;
      }

      .cls-21 {
        fill: #16a9d3;
      }

      .cls-22 {
        fill: #9bc6d6;
      }

      .cls-23 {
        fill: #10abd1;
      }

      .cls-24 {
        fill: #193158;
      }

      .cls-25 {
        fill: #273852;
      }

      .cls-26 {
        fill: #1b3458;
      }

      .cls-27 {
        fill: #38b0c7;
      }

      .cls-28 {
        fill: #0baad5;
      }

      .cls-29 {
        fill: #2ba9d1;
      }

      .cls-30 {
        fill: #2e3d56;
      }
    </style>
  </defs>
  <g id="_Слой_1-2" data-name="Слой 1">
    <g>
      <path class="cls-10" d="M0,45.21c0-15.05,0-30.1,0-45.21C13.44,0,26.88,0,40.32,0c-.97.4-1.94.79-2.9,1.19-.31.06-.63.09-.93.18-2.22.69-4.43,1.39-6.64,2.09-5.75,1.82-11.49,3.64-17.33,5.49.18.16.29.27.41.35,3.13,1.92,6.24,3.88,9.4,5.74,1.33.79,2.46,1.54,1.92,3.36-.11.36-.02.78-.02,1.38,10.72-4.61,20.22-2.86,28.66,5.16.11-1.66.27-3.08.27-4.49,0-.45-.28-1.1-.63-1.31-1.61-.96-3.23-1.91-4.95-2.63-1.68-.7-3.46-1.16-5.23-1.62-2-.51-4.03-.94-6.06-1.32-.99-.18-2.03-.16-3.27-.25,1.3-1.03,2.34-1.05,3.39-.27.11.08.31.05.47.06,6.42.34,12.36,2.2,17.79,5.67.31.2.82.26,1.19.17,1.7-.37,3.38-.82,4.87-1.19.96,1.74,1.85,3.37,2.75,4.99.68,1.82,1.35,3.63,2.03,5.45,0,.08,0,.16.01.25-.16,1.51-.32,3.03-.48,4.54-.17.31-.35.61-.5.93-.4.83-.79,1.66-1.24,2.62.18.12.58.56,1.04.63.51.08,1.07-.18,1.61-.3.01.1.05.36.09.61.1.02.21.03.31.05.28-1.42.63-2.83.8-4.26.05-.45-.51-.94-.57-1.44-.13-1.12-.13-2.25-.18-3.38-.05-.12-.1-.23-.15-.35l.03-.07-.05-.05c-.8-2.16-1.6-4.32-2.4-6.48-.09-.23-.18-.47-.27-.7-.03-.39-.06-.78-.09-1.17,0-.17-.01-.33-.02-.5.06-.4.11-.8.17-1.19.67-1.11,1.46-1.96,2.96-1.72.46.07.98-.22,1.47-.32.99-.21,1.98-.4,2.97-.6v59.09c-23.68,0-47.36,0-71.04,0,0-9.65,0-19.3,0-28.95,2.23,1.6,4.47,3.19,6.7,4.79.14.11.27.22.41.34l.06-.08s-.05.08-.05.08c.42.29.84.58,1.27.87,0,0,0,0,0,0,.41.3.82.6,1.23.9,5.9,4.31,11.77,8.66,17.7,12.92,2.2,1.58,4.04,3.23,4.05,6.26,0,1.53,1.2,2.58,2.42,2.63,1.49.07,2.91-.95,3.18-2.48.48-2.72,1.99-4.65,4.21-6.21,3.62-2.55,7.17-5.2,10.74-7.81,3.34-2.44,6.68-4.9,10.02-7.35,2.17-1.59,4.34-3.18,6.63-4.85-.62-.45-1.12-.81-1.84-1.33-3.68,2.69-7.38,5.4-11.09,8.1-.08-.1-.16-.2-.24-.3,3.3-2.98,6.61-5.97,10.01-9.04-.89-.74-1.74-1.44-2.59-2.14-.58.78-1.09,1.5-1.63,2.18-3.31,4.16-7.48,7.4-11.68,10.57-5.41,4.09-10.62,8.36-14.45,14.05-.08.12-.24.2-.5.41-.68-.58-1.37-1.15-2.06-1.73-3.41-4.29-6.74-8.65-10.26-12.85-2.26-2.7-4.8-5.17-7.21-7.74-1.25-.99-2.49-1.98-3.74-2.97l-.3.36c1.14.97,2.28,1.94,3.42,2.92,4.73,5.78,9.46,11.56,14.19,17.34-.08.07-.16.15-.24.22-.17-.07-.35-.15-.52-.22-.02-.05-.06-.09-.11-.1-.28-.24-.55-.49-.83-.73h0c-.54-.5-1.08-1-1.62-1.5h0c-.09-.08-.18-.17-.27-.27-3.12-3.66-6.23-7.32-9.35-10.97-2.93-3.42-5.96-6.75-10.08-8.9-.57.46-1.15.93-1.76,1.42,1.79,1.53,3.55,2.96,5.22,4.49,1.66,1.52,3.28,3.08,4.72,4.81l-.23.21c-3.65-2.83-7.3-5.66-10.9-8.45C1.64,44.01.82,44.61,0,45.21ZM35.55,61.02h0c.08-.16.16-.32.24-.48,0,0,0,0,0,0,.1-.16.21-.31.31-.47.78-1.1,1.55-2.21,2.33-3.31.21-.23.42-.47.77-.85-.72-.18-1.24-.3-1.75-.43-.58-.41-.92-.28-1,.44-.17.25-.33.5-.5.75-.14.23-.27.47-.43.69-.94,1.22-1.51,2.93-3.56,2.67-.92-.15-1.85-.3-2.77-.45-.09.15-.19.29-.28.44.28.17.56.35.85.52h0c.48.15.97.3,1.45.46.22.02.43.03.65.05-.15.29-.3.59-.45.88h0c-.12.08-.24.15-.35.22.12.12.24.25.36.37,0,.06,0,.11.03.16.08.1.16.19.23.29.65.78,1.3,1.57,2.09,2.52.47-1.18.85-2.11,1.26-3.13-.53-.14-.97-.26-1.42-.39,0-.06-.01-.13,0-.19,0-.02.07-.02.1-.04.49-.4,1.22.8,1.61-.24,0,0,0,0,0,0,.08-.16.17-.32.25-.48ZM31.22,26.3c-.08-.05-.16-.1-.25-.15-.09-.02-.18-.05-.27-.07-.4-.16-.79-.32-1.19-.48-.89-.49-1.82-.92-2.67-1.48-.55-.36-1.22-.82-1.4-1.38-.18-.54.2-1.26.34-1.93-.58,0-1.4-.11-2.16.03-.69.13-1.43.44-1.92.9-.16.15.39,1.05.61,1.61.02.06-.01.15-.01.19-1.51,1.05-3,2.08-4.71,3.27.72.68,1.27,1.21,1.73,1.65,1.62-1.05,3.06-2.05,4.57-2.92.45-.26,1.15-.3,1.66-.16,1.05.29,2.05.77,3.06,1.17.38.16.76.32,1.13.48h0c.32.14.65.28.97.42.77.28.21.54-.02.8-1.06,1.18-2.14,2.35-3.16,3.56-.2.24-.2.64-.34,1.13-.31-.08-.82-.2-1.33-.32-1.83-.75-3.65-1.5-5.48-2.25-.31-.17-.62-.35-.92-.52-.32-.23-.65-.46-.97-.7-.09-.07-.18-.14-.27-.21-.16-.15-.33-.3-.49-.45h-.01c-.15-.18-.3-.36-.45-.53-.08-.07-.15-.14-.23-.21.19-1.01.38-2.01.61-3.27-.97.19-2.14.41-3.3.64-.65.27-1.34.46-1.94.81-1.13.68-1.28,1.73-.36,2.66.6.61,1.37,1.05,2.07,1.57.03.16.06.31.08.47-.27.4-.53.8-.8,1.2-1.9,2.53-2.93,5.41-3.62,8.52.71.39,1.38.75,1.96,1.07.8-2.09,1.55-4.06,2.3-6.03.06-.05.09-.12.08-.2.06-.08.12-.17.19-.25.35-.63.7-1.26,1.06-1.9h0c.06-.07.13-.16.19-.25.07-.08.14-.17.21-.25.52-.96,1.19-.99,2.15-.53,1.14.54,2.39.86,3.59,1.27.5.15.99.31,1.49.46h0c.84.29,1.67.59,2.54.9-.17.42-.28.71-.4,1-.72,1.63-1.45,3.26-2.17,4.9-.06.13-.12.26-.18.38v.02c-.55,1.71-1.08,3.42-1.62,5.13.2.08.4.15.6.23.41-.84.82-1.68,1.23-2.52h0c.25-.48.5-.94.76-1.41,0,0,0,0,0,0,.17-.31.35-.62.52-.94,0,0-.01,0-.01,0,.23-.42.45-.83.68-1.25.62-.85,1.28-1.69,1.87-2.57,1.58-2.34,1.55-2.25,4.33-1.79,3.52.59,7.07,1,10.6,1.48,2.04.11,4.07.23,6.11.34,0-.14.01-.27.02-.41-1.88-.21-3.77-.42-5.65-.63-4.02-.9-8.04-1.81-12.06-2.71l-.06-.4c1.4-1.27,2.82-2.53,4.19-3.83.62-.59,1.29-.89,2.14-.7,1.28.24,2.57.48,3.85.72h0c.16.05.32.09.47.14.79.1,1.58.21,2.37.31.02-.15.05-.3.07-.45-.8-.17-1.61-.33-2.41-.5-.69-.09-1.37-.18-2.06-.27,0-.08-.04-.15-.09-.21-.09-.06-.17-.12-.26-.18-.52-.16-1.05-.32-1.87-.57,1.52-.85,2.73-1.51,3.92-2.2,1.94-1.13,3.82-1.38,5.6.29.05.05.15.04.23.06.63.49,1.26.98,1.9,1.47.99.84,1.97,1.69,2.96,2.53.05-.03.1-.07.15-.1-.94-1.04-1.88-2.08-2.82-3.12-.48-.41-.96-.82-1.43-1.23-2.01-1.14-3.92-2.55-6.06-3.38-4.5-1.75-9.16-1.84-13.83-.51-.89.26-1.01.59-.41,1.31.47.56,1,.81,1.78.6,1.22-.34,2.46-.68,3.72-.8,2.43-.23,4.87-.31,7.13.47-1.76.8-3.57,1.58-5.33,2.45-.41.2-.66.74-1.07,1.22-.32-.11-.82-.27-1.32-.44-.15-.09-.29-.18-.44-.27h.01ZM24.94,52.91s0-.01,0-.01c1.45.22,2.89.44,4.34.67.72.09,1.44.18,2.16.27.14,0,.29.01.43.02,2.26.46,4.51.92,6.77,1.39.48-.08.96-.16,1.43-.24.37-.39.73-.79.96-1.03-.22-.47-.36-.78-.51-1.09.3-1.46.7-2.92.88-4.4.28-2.31.18-4.61-.88-6.8-.23.51-.31,1.03-.43,1.55-.66,3.01-1.33,6.02-2.01,9.02-.16.69-.54,1.14-1.33,1.08-.97-.22-1.94-.45-2.91-.67-.23-.01-.47-.03-.7-.04-.81-.07-1.62-.15-2.43-.22-.3,0-.6-.02-.9-.02-2.18-.18-4.35-.37-6.53-.55-.04.15-.09.31-.13.46.36.2.73.39,1.09.59l.48.03.11.02h.11ZM41.24,21.09c.97.51,1.95,1.03,2.92,1.54.16.11.32.24.49.33,4.03,2.09,6.96,5.25,9.03,9.23,1.58,3.03,2.43,6.27,2.53,9.92.96-.75,1.74-1.4,2.57-1.99.62-.43.72-.89.54-1.63-1.36-5.45-4.23-9.96-8.71-13.32-1.88-1.41-4.13-2.32-6.21-3.45-1.05-.32-2.09-.64-3.14-.95-.95-.25-1.91-.49-2.86-.74-.03.13-.06.26-.09.39.97.22,1.95.45,2.92.67ZM59.21,42.25l-.42-.27c-.56.42-1.12.85-1.68,1.27-4.18,3.12-8.43,6.15-12.51,9.4-3.85,3.06-6.94,6.78-8.78,11.42-.14.36-.22.75-.33,1.12.96-.94,1.62-2.01,2.37-3.02,3.33-4.5,7.71-7.91,12.02-11.4,2.91-2.35,5.73-4.82,8.56-7.27.35-.31.52-.82.77-1.24Z"/>
      <path class="cls-24" d="M71.04,15.31c-.99.2-1.98.4-2.97.6-.5.1-1.01.39-1.47.32-1.5-.24-2.29.61-2.96,1.72-.06.4-.11.8-.17,1.19,0,.17.01.33.02.5.03.39.06.78.09,1.17.09.23.18.47.27.7-.12.42-.23.84-.35,1.26-.89-1.63-1.79-3.25-2.75-4.99-1.49.37-3.17.81-4.87,1.19-.37.08-.88.03-1.19-.17-5.43-3.47-11.36-5.32-17.79-5.67-.16,0-.36.03-.47-.06-1.05-.78-2.09-.76-3.39.27,1.24.09,2.27.07,3.27.25,2.03.38,4.06.81,6.06,1.32,1.77.45,3.55.92,5.23,1.62,1.72.72,3.35,1.67,4.95,2.63.36.21.63.86.63,1.31,0,1.41-.16,2.83-.27,4.49-8.44-8.03-17.94-9.78-28.66-5.16,0-.61-.09-1.03.02-1.38.54-1.81-.59-2.57-1.92-3.36-3.16-1.86-6.27-3.82-9.4-5.74-.13-.08-.23-.2-.41-.35,5.83-1.85,11.58-3.67,17.33-5.49,2.21-.7,4.43-1.4,6.64-2.09.3-.09.62-.12.93-.18,1.13-.32,2.26-.65,3.4-.97.16.07.32.15.48.22.24.09.48.18.72.27,0,0,0,0,0,0,.32.16.65.32.97.48,0,0,0,0,0,0,.32.16.64.33.97.49.18.07.37.12.54.2,5.69,2.84,11.39,5.68,17.08,8.52,3.16,1.57,6.32,3.12,9.48,4.69v.24Z"/>
      <path class="cls-9" d="M32.48,66.23c.69.58,1.37,1.15,2.06,1.73.26-.21.41-.29.5-.41,3.84-5.68,9.05-9.96,14.45-14.05,4.2-3.18,8.37-6.41,11.68-10.57.54-.68,1.05-1.4,1.63-2.18.86.71,1.7,1.4,2.59,2.14-3.4,3.07-6.71,6.06-10.01,9.04.08.1.16.2.24.3,3.7-2.7,7.4-5.41,11.09-8.1.72.52,1.22.88,1.84,1.33-2.28,1.67-4.46,3.26-6.63,4.85-3.34,2.45-6.68,4.9-10.02,7.35-3.57,2.61-7.12,5.26-10.74,7.81-2.21,1.56-3.73,3.49-4.21,6.21-.27,1.53-1.69,2.55-3.18,2.48-1.22-.06-2.42-1.1-2.42-2.63-.01-3.03-1.84-4.67-4.05-6.26-5.93-4.26-11.8-8.61-17.7-12.92.04-.9-.55-.96-1.23-.9,0,0,0,0,0,0-.12-.72-.49-1.09-1.27-.87l.05-.08s-.06.08-.06.08c-.14-.11-.27-.22-.41-.34C4.47,48.65,2.23,47.05,0,45.45c0-.08,0-.16,0-.24.82-.6,1.64-1.2,2.61-1.92,3.59,2.79,7.24,5.62,10.9,8.45l.23-.21c-1.44-1.72-3.06-3.29-4.72-4.81-1.67-1.53-3.43-2.96-5.22-4.49.61-.49,1.19-.96,1.76-1.42,4.12,2.15,7.15,5.47,10.08,8.9,3.13,3.65,6.24,7.31,9.35,10.97.09.09.18.19.27.28,0,0,0-.01,0-.01.1.97.6,1.51,1.62,1.5,0,0,0,0,0,0,.04.52-.09,1.22.83.73.06.01.09.05.11.1-.24,1.18,1.08,1.86,1.46,1.92,1.14.2,2.21.45,3.21,1.03ZM14.51,52.83c.05-.07.1-.13.14-.2-.14-.12-.28-.23-.42-.35-.07.08-.14.15-.21.23.16.11.32.21.49.32Z"/>
      <path class="cls-3" d="M41.29.44c-.16-.07-.32-.15-.48-.22-.03-.07-.03-.14-.01-.22h30.24v15.07c-3.16-1.56-6.33-3.12-9.48-4.69-5.7-2.83-11.39-5.68-17.08-8.52-.17-.09-.36-.13-.54-.2-.32-.16-.64-.33-.97-.49,0,0,0,0,0,0-.32-.16-.65-.32-.97-.48,0,0,0,0,0,0-.24-.09-.48-.18-.72-.27Z"/>
      <path class="cls-13" d="M40.8,0c-.02.07-.02.15.01.22-1.13.32-2.26.65-3.4.97.97-.4,1.94-.79,2.9-1.19.16,0,.32,0,.48,0Z"/>
      <path class="cls-21" d="M38.66,28.7c.05.06.08.13.09.21-.76.02-1.53.03-2.29.05-.85-.19-1.52.11-2.14.7-1.37,1.3-2.79,2.55-4.19,3.83l.06.4c4.02.9,8.04,1.81,12.06,2.71.24.13.48.25.7.37-.4.12-.79.23-1.18.34-3.54-.49-7.08-.9-10.6-1.48-2.78-.46-2.75-.56-4.33,1.79-.59.88-1.24,1.71-1.87,2.57-.16.08-.32.16-.49.24-.08-.12-.15-.24-.23-.36-.05.05-.09.09-.14.14.12.07.24.15.37.22-.06.34-.13.67-.19,1.01,0,0,.01,0,.01,0-.17.31-.35.62-.52.94,0,0,0,0,0,0-.25.47-.5.94-.76,1.4,0,0,0,0,0,0-.14-.38-.39-.75-.4-1.13-.02-.57.12-1.14.18-1.71,0,0,0-.02,0-.02.06-.13.12-.26.18-.38.72-1.63,1.45-3.26,2.17-4.9,1.18-.48.63-1.2.26-1.9l.45-1.12c.51.12,1.01.25,1.33.32.14-.49.14-.89.34-1.13,1.03-1.21,2.11-2.38,3.16-3.56.23-.26.79-.52.02-.8-.32-.14-.65-.28-.97-.41,0,0,0,0,0,0,.32-.32.63-.63.95-.95.09.02.18.05.27.07.08.05.16.1.25.15,0,0-.01-.01-.01-.01.15.09.29.18.44.27.5.17.99.33,1.32.44.41-.49.66-1.02,1.07-1.22,1.76-.88,3.56-1.65,5.33-2.45-2.26-.78-4.7-.7-7.13-.47-1.25.12-2.5.46-3.72.8-.78.22-1.31-.04-1.78-.6-.61-.72-.49-1.05.41-1.31,4.67-1.33,9.33-1.25,13.83.51,2.14.83,4.05,2.24,6.06,3.38-.25.15-.5.31-.74.46-.08-.02-.18-.01-.23-.06-1.79-1.67-3.67-1.41-5.6-.29-1.19.69-2.4,1.35-3.92,2.2.82.25,1.34.41,1.87.57.09.06.17.12.26.18Z"/>
      <path class="cls-4" d="M44.42,21.72c2.08,1.14,4.33,2.05,6.21,3.45,4.48,3.36,7.35,7.86,8.71,13.32.18.74.08,1.19-.54,1.63-.83.59-1.61,1.24-2.57,1.99-.1-3.65-.95-6.89-2.53-9.92-2.08-3.98-5-7.14-9.03-9.23-.17-.09-.33-.22-.49-.33.08-.3.17-.61.25-.91Z"/>
      <path class="cls-7" d="M59.21,42.25c-.25.42-.42.94-.77,1.24-2.83,2.45-5.65,4.91-8.56,7.27-4.31,3.49-8.69,6.9-12.02,11.4-.75,1.01-1.4,2.09-2.37,3.02.11-.37.18-.76.33-1.12,1.83-4.64,4.93-8.36,8.78-11.42,4.08-3.24,8.34-6.27,12.51-9.4.56-.42,1.12-.85,1.68-1.27l.42.27Z"/>
      <path class="cls-5" d="M36.76,53.33c.78.06,1.17-.39,1.33-1.08.68-3.01,1.34-6.01,2.01-9.02.11-.52.19-1.04.43-1.55,1.06,2.19,1.17,4.49.88,6.8-.18,1.48-.58,2.93-.88,4.4-.94.54-.57,1.35-.45,2.12-.48.08-.96.16-1.43.24-.28-.3-.54-.83-.86-.86-1.96-.23-3.94-.36-5.91-.52-.14,0-.29-.01-.43-.02-.55-.94-1.45-.27-2.16-.48-1.37-.87-2.89-.35-4.34-.46,0,0,0,.01,0,.01-.07,0-.15,0-.22,0-.16-.01-.32-.02-.48-.03.35-.16.69-.44,1.05-.45,1.51-.06,3.02-.04,4.53-.05.3,0,.6.02.9.02.73.98,1.6.32,2.43.22.23.01.47.03.7.04.39.23.76.58,1.18.66.56.11,1.16.02,1.74.01Z"/>
      <path class="cls-20" d="M28.63,26.55c-1.02-.4-2.02-.88-3.06-1.17-.51-.14-1.21-.09-1.66.16-1.51.87-2.95,1.87-4.57,2.92-.46-.44-1.02-.97-1.73-1.65,1.71-1.19,3.2-2.22,4.71-3.27,0-.04.04-.12.01-.19-.22-.56-.77-1.45-.61-1.61.49-.47,1.23-.77,1.92-.9.76-.15,1.58-.03,2.16-.03-.14.67-.52,1.39-.34,1.93.18.56.85,1.02,1.4,1.38.85.56,1.78.99,2.67,1.48.09.68-.13,1.07-.89.95Z"/>
      <path class="cls-16" d="M32.48,66.23c-1-.58-2.07-.83-3.21-1.03-.37-.06-1.7-.74-1.46-1.92.17.07.35.15.52.22.08-.07.16-.15.24-.22-4.73-5.78-9.46-11.56-14.19-17.34.21-.1.42-.2.63-.3,2.41,2.57,4.95,5.04,7.21,7.74,3.52,4.2,6.85,8.56,10.26,12.85ZM29.49,64.34c-.03-.06-.07-.12-.1-.18-.05.06-.14.11-.14.17,0,.06.08.12.12.18.04-.06.08-.12.12-.18ZM29.04,63.98s-.06-.07-.08-.07c-.05,0-.1.04-.15.06.02.02.05.07.07.07.05,0,.1-.04.16-.06Z"/>
      <path class="cls-14" d="M14.08,35.38c-.75,1.97-1.5,3.94-2.3,6.03-.58-.32-1.25-.68-1.96-1.07.68-3.11,1.72-6,3.62-8.52.21,1.19.43,2.37.64,3.56Z"/>
      <path class="cls-18" d="M25.89,32.61c-.15.37-.3.75-.45,1.12-.8,0-1.61,0-2.41,0,0,0,0,0,0,0-.5-.15-.99-.31-1.49-.46-1.2-.41-2.45-.73-3.59-1.27-.96-.45-1.63-.43-2.15.53-.07.08-.14.17-.21.25-.06.09-.13.17-.19.26.14-.57.28-1.14.42-1.71.64-.32,1.28-.64,1.92-.95,1.08,1.24,1.61,1.25,2.6.03l.05-.05c1.83.75,3.65,1.5,5.48,2.25Z"/>
      <path class="cls-26" d="M66.42,28.46c.05,1.13.05,2.26.18,3.38.06.5.62.99.57,1.44-.17,1.43-.52,2.84-.8,4.26-.1-.02-.21-.03-.31-.05-.04-.25-.07-.51-.09-.61-.54.11-1.1.38-1.61.3-.46-.07-.86-.51-1.04-.63.45-.96.84-1.79,1.24-2.62.15-.32.33-.62.5-.93.18-.23.52-.45.53-.68.03-1.29-.02-2.58-.05-3.86,0-.08,0-.16-.01-.25.24-.08.48-.15.72-.23,0,0,.05.05.05.05,0,0-.03.07-.03.07.05.12.1.23.15.35Z"/>
      <path class="cls-5" d="M36.45,55.93c.08-.72.42-.85,1-.44.33.42.66.85.99,1.27-.78,1.1-1.55,2.21-2.33,3.31-.1.16-.21.31-.31.47,0,0,0,0,0,0-.08.16-.16.32-.24.49,0,0,0,0,0,0-.08.16-.17.32-.25.48,0,0,0,0,0,0-1.15-.16-2.3-.31-3.46-.47-.22-.02-.43-.03-.65-.05-.48-.15-.97-.31-1.45-.46,0,0,0,0,0,0,.55-.98,1.49-.25,2.21-.51,2.05.26,2.62-1.45,3.56-2.67.16-.21.29-.46.43-.69.3-.02.61-.05,1.04-.08-.27-.33-.41-.5-.54-.67Z"/>
      <path class="cls-23" d="M14.15,30.15c-.7-.52-1.46-.96-2.07-1.57-.93-.93-.77-1.98.36-2.66.6-.36,1.29-.55,1.94-.81.25,0,.49.02.74.03-.23.15-.45.33-.69.46-.32.18-.66.32-.99.48.52.24,1.03.49,1.88.88-.67.31-1.18.54-1.75.81v.83c.47-.22.89-.42,1.31-.61,0,.32,0,.64,0,.96-.24.4-.48.8-.73,1.21Z"/>
      <path class="cls-19" d="M31.43,62.68c-.02-.05-.03-.1-.03-.16,0-.2,0-.4,0-.59,0,0,0,0,0,0,.74-.35,1.44.95,2.19.05.45.12.89.24,1.42.39-.41,1.01-.79,1.95-1.26,3.13-.79-.96-1.44-1.74-2.09-2.52-.08-.1-.16-.19-.23-.29Z"/>
      <path class="cls-25" d="M66.25,27.99c-.24.08-.48.15-.72.23-.68-1.82-1.35-3.63-2.03-5.45.12-.42.23-.84.35-1.26.8,2.16,1.6,4.32,2.4,6.48Z"/>
      <path class="cls-14" d="M14.15,30.15c.24-.4.48-.8.73-1.21.24.48.48.96.72,1.44.08.32.16.64.24.95-.14.57-.28,1.14-.42,1.71,0,0,0-.01,0-.01-.47-.07-.93-.14-1.66-.25.58-.65.86-.96,1.19-1.33-.24-.29-.47-.57-.7-.84-.03-.16-.06-.31-.08-.47Z"/>
      <path class="cls-28" d="M15.6,30.38c-.24-.48-.48-.96-.72-1.44,0-.32,0-.64,0-.96.32-.16.64-.32.96-.48,0,0,0,0,0,0,.12.3.23.6.42,1.07.26-.4.4-.61.54-.83.09,0,.18-.01.27-.02.08.07.15.14.23.21.15.17.3.35.45.52,0,0,.01.01.01.01,0,.15,0,.31,0,.46,0,0,0,0,0,0-.16.16-.32.32-.48.48-.39.14-.78.29-1.18.43-.04-.09-.07-.19-.11-.28l-.4.81Z"/>
      <path class="cls-11" d="M31.87,53.85c1.97.16,3.95.29,5.91.52.32.04.57.56.86.86-2.26-.46-4.51-.92-6.77-1.39Z"/>
      <path class="cls-18" d="M14.24,30.62c.23.27.45.55.7.84-.33.37-.61.68-1.19,1.33.73.11,1.2.18,1.66.25-.35.63-.7,1.26-1.06,1.9-.06.08-.12.17-.19.25,0,.08-.03.14-.08.2-.21-1.19-.43-2.38-.64-3.56.27-.4.53-.8.8-1.2Z"/>
      <path class="cls-6" d="M22.81,40.93c-.07.57-.21,1.14-.18,1.71.02.38.26.75.4,1.13-.41.84-.82,1.68-1.23,2.52-.2-.08-.4-.15-.6-.23.54-1.71,1.08-3.42,1.61-5.13Z"/>
      <path class="cls-6" d="M41.76,37.32c.39-.11.78-.23,1.18-.34-.22-.11-.46-.24-.7-.37,1.88.21,3.77.42,5.65.63,0,.14-.01.27-.02.41-2.04-.11-4.07-.23-6.11-.34Z"/>
      <path class="cls-29" d="M17.07,27.74c-.09,0-.18.01-.27.02-.16-.08-.31-.16-.47-.25q.63-2.41-1.21-2.38c-.25,0-.49-.02-.74-.03,1.17-.23,2.34-.45,3.3-.64-.24,1.26-.43,2.26-.61,3.27Z"/>
      <path class="cls-22" d="M33.6,61.97c-.75.9-1.45-.4-2.19-.05.15-.29.3-.59.44-.88,1.15.16,2.3.31,3.46.47-.39,1.04-1.12-.16-1.61.24-.03.02-.1.02-.1.04-.01.06,0,.13,0,.19Z"/>
      <path class="cls-30" d="M15.02,45.64c-.21.1-.42.2-.63.3-1.14-.97-2.28-1.94-3.42-2.92l.3-.36c1.25.99,2.49,1.98,3.74,2.97Z"/>
      <path class="cls-2" d="M29.82,52.37c-1.51,0-3.02-.01-4.53.05-.35.01-.7.29-1.05.45-.36-.2-.73-.39-1.09-.59.04-.15.09-.31.13-.46,2.18.18,4.35.37,6.53.55Z"/>
      <path class="cls-8" d="M48.46,26.86c.94,1.04,1.88,2.08,2.82,3.12-.05.03-.1.07-.15.1-.99-.84-1.97-1.69-2.96-2.53.09-.23.19-.46.28-.69Z"/>
      <path class="cls-2" d="M44.42,21.72c-.08.3-.17.61-.25.91-.97-.51-1.95-1.03-2.92-1.54.01-.11.02-.21.03-.32,1.05.32,2.09.64,3.14.95Z"/>
      <path class="cls-1" d="M36.46,28.96c.76-.02,1.53-.03,2.29-.05.69.09,1.37.18,2.06.27-.17.17-.34.33-.5.5-1.28-.24-2.57-.48-3.85-.72Z"/>
      <path class="cls-15" d="M23.03,33.74c.8,0,1.61,0,2.41,0,.37.7.92,1.42-.26,1.9.12-.29.23-.58.4-1-.87-.31-1.71-.6-2.54-.9Z"/>
      <path class="cls-27" d="M48.46,26.86c-.09.23-.19.46-.28.69-.63-.49-1.26-.98-1.9-1.47.25-.15.5-.31.74-.46.48.41.96.82,1.43,1.23Z"/>
      <path class="cls-15" d="M40.31,29.68c.17-.17.34-.33.5-.5.8.17,1.61.33,2.41.5-.02.15-.05.3-.07.45-.79-.1-1.58-.21-2.37-.31-.16-.05-.32-.1-.47-.14h0Z"/>
      <path class="cls-2" d="M24.94,52.89c1.45.1,2.97-.41,4.34.46,0,.07,0,.14,0,.21-1.45-.22-2.89-.44-4.34-.67Z"/>
      <path class="cls-25" d="M65.54,28.47c.02,1.29.08,2.58.05,3.86,0,.23-.34.45-.53.68.16-1.51.32-3.03.48-4.54Z"/>
      <path class="cls-11" d="M36.76,53.33c-.58,0-1.18.1-1.74-.01-.42-.08-.79-.43-1.18-.66.97.22,1.94.45,2.91.67Z"/>
      <path class="cls-2" d="M40.07,54.99c-.12-.76-.49-1.58.45-2.12.14.31.29.62.51,1.09-.23.24-.59.63-.96,1.03Z"/>
      <path class="cls-12" d="M41.28,20.77c-.01.11-.02.21-.03.32-.97-.22-1.95-.45-2.92-.67.03-.13.06-.26.09-.39.95.25,1.91.49,2.86.74Z"/>
      <path class="cls-6" d="M28.63,26.55c.76.12.98-.27.89-.95.4.16.79.32,1.19.48-.32.32-.63.63-.95.95-.38-.16-.76-.32-1.13-.48Z"/>
      <path class="cls-16" d="M26.87,62.44c-1.01,0-1.52-.52-1.62-1.5.54.5,1.08,1,1.62,1.5Z"/>
      <path class="cls-22" d="M31.96,60.03c-.72.25-1.66-.47-2.21.51-.28-.17-.56-.35-.85-.52.09-.15.19-.29.28-.44.92.15,1.85.3,2.77.45Z"/>
      <path class="cls-11" d="M33.15,52.62c-.83.1-1.7.75-2.43-.22.81.07,1.62.15,2.43.22Z"/>
      <path class="cls-11" d="M38.43,56.76c-.33-.42-.66-.85-.99-1.27.51.13,1.03.25,1.75.43-.35.38-.56.61-.77.85Z"/>
      <path class="cls-11" d="M29.28,53.56c0-.07,0-.14,0-.21.71.21,1.61-.47,2.16.48-.72-.09-1.44-.18-2.16-.27Z"/>
      <path class="cls-30" d="M8.38,51.45c.67-.05,1.26,0,1.23.9-.41-.3-.82-.6-1.23-.9Z"/>
      <path class="cls-30" d="M7.12,50.59c.77-.22,1.14.14,1.27.87-.42-.29-.84-.58-1.27-.87Z"/>
      <path class="cls-15" d="M21.55,33.27c.5.15.99.31,1.49.46-.5-.15-.99-.31-1.49-.46Z"/>
      <path class="cls-6" d="M23.03,43.77c.25-.47.5-.94.76-1.4-.25.47-.5.94-.76,1.4Z"/>
      <path class="cls-18" d="M18.52,29.15l.97.7s-.07.09-.07.09c-.67.22-.94-.09-.97-.73l.07-.06Z"/>
      <path class="cls-22" d="M29.75,60.53c.48.15.97.31,1.45.46-.48-.15-.97-.31-1.45-.46Z"/>
      <path class="cls-11" d="M36.45,55.93c.14.17.28.34.54.67-.43.03-.74.06-1.04.08.17-.25.33-.5.5-.75Z"/>
      <path class="cls-16" d="M27.71,63.18c-.92.48-.79-.22-.83-.73.28.24.55.49.83.73Z"/>
      <path class="cls-6" d="M24.29,41.44c.06-.34.13-.67.19-1.01,0,0,0,0,0,0,.16-.08.32-.16.49-.24-.23.42-.45.83-.68,1.25Z"/>
      <path class="cls-25" d="M63.46,19.14c.06-.4.11-.8.17-1.19-.06.4-.11.8-.17,1.19Z"/>
      <path class="cls-6" d="M23.78,42.37c.17-.31.35-.62.52-.94-.17.31-.35.62-.52.94Z"/>
      <path class="cls-18" d="M19.49,29.84c.31.17.62.35.92.52,0,0-.05.05-.05.05-.31-.16-.63-.32-.94-.48l.07-.09Z"/>
      <path class="cls-6" d="M29.76,27.03c.32.14.65.28.97.41-.32-.14-.65-.28-.97-.41Z"/>
      <path class="cls-25" d="M63.57,20.81c-.03-.39-.06-.78-.09-1.17.03.39.06.78.09,1.17Z"/>
      <path class="cls-22" d="M31.4,61.92c0,.2,0,.39,0,.59-.12-.12-.24-.25-.36-.37.12-.07.24-.15.35-.22Z"/>
      <path class="cls-18" d="M17.76,28.95c0-.15,0-.31,0-.46.16.15.33.3.49.45,0,0-.03.04-.03.04l-.46-.03Z"/>
      <path class="cls-18" d="M17.74,28.47c-.15-.17-.3-.35-.45-.52.15.17.3.35.45.52Z"/>
      <path class="cls-30" d="M6.7,50.24c.14.11.27.22.41.34-.14-.11-.27-.22-.41-.34Z"/>
      <path class="cls-1" d="M40.31,29.68c.16.05.32.1.47.14-.16-.05-.32-.1-.47-.14Z"/>
      <path class="cls-6" d="M31.65,26.56c-.15-.09-.29-.18-.44-.27.15.09.29.18.44.27Z"/>
      <path class="cls-22" d="M35.78,60.55c.1-.16.21-.31.31-.47-.1.16-.21.31-.31.47Z"/>
      <path class="cls-22" d="M35.55,61.03c.08-.16.16-.32.24-.49-.08.16-.16.32-.24.49Z"/>
      <path class="cls-22" d="M35.3,61.5c.08-.16.17-.32.25-.48-.08.16-.17.32-.25.48Z"/>
      <path class="cls-18" d="M18.25,28.94c.09.07.18.14.27.21,0,0-.07.06-.07.06-.08-.08-.16-.15-.24-.23l.03-.04Z"/>
      <path class="cls-1" d="M38.66,28.7c-.09-.06-.17-.12-.26-.18.09.06.17.12.26.18Z"/>
      <path class="cls-16" d="M25.26,60.96c-.09-.09-.18-.18-.27-.28.09.09.18.19.27.28Z"/>
      <path class="cls-25" d="M66.42,28.46c-.05-.12-.1-.23-.15-.35.05.12.1.23.15.35Z"/>
      <path class="cls-6" d="M31.22,26.3c-.08-.05-.16-.1-.25-.15.08.05.16.1.25.15Z"/>
      <path class="cls-14" d="M15.61,32.79c.07-.08.14-.17.21-.25-.07.08-.14.17-.21.25Z"/>
      <path class="cls-14" d="M14.17,35.19c.06-.08.12-.17.19-.25-.06.08-.12.17-.19.25Z"/>
      <path class="cls-6" d="M23,40.53c-.06.13-.12.26-.18.38.06-.13.12-.26.18-.38Z"/>
      <path class="cls-22" d="M31.43,62.68c.08.1.16.19.23.29-.08-.1-.16-.19-.23-.29Z"/>
      <path class="cls-2" d="M24.72,52.9c.07,0,.15,0,.22,0,0,0-.11,0-.11,0l-.11-.02Z"/>
      <path class="cls-13" d="M42.01.7c.32.16.65.32.97.48-.32-.16-.65-.32-.97-.48Z"/>
      <path class="cls-13" d="M42.97,1.18c.32.16.64.33.97.49-.32-.16-.64-.33-.97-.49Z"/>
      <path class="cls-13" d="M41.29.44c.24.09.48.18.72.27-.24-.09-.48-.18-.72-.27Z"/>
      <path class="cls-10" d="M14.51,52.83c-.16-.11-.32-.21-.49-.32.07-.08.14-.15.21-.23.14.12.28.23.42.35-.05.07-.1.13-.14.2Z"/>
      <path class="cls-6" d="M24.48,40.43l-.37-.22s.09-.09.14-.14c.08.12.15.24.23.36,0,0,0,0,0,0Z"/>
      <path class="cls-10" d="M29.49,64.34c-.04.06-.08.12-.12.18-.04-.06-.13-.13-.12-.18,0-.06.09-.12.14-.17.03.06.07.12.1.18Z"/>
      <path class="cls-10" d="M29.04,63.98c-.06.02-.11.05-.16.06-.02,0-.05-.04-.07-.07.05-.02.1-.05.15-.06.02,0,.05.04.08.07Z"/>
      <path class="cls-28" d="M18.22,28.98c.08.08.16.15.24.23.02.64.29.95.97.73.31.16.63.32.94.48-.99,1.21-1.52,1.21-2.6-.03,0-.32,0-.64,0-.96,0-.16,0-.32,0-.48,0,0,0,0,0,0,.15,0,.31.02.46.03Z"/>
      <path class="cls-23" d="M17.76,29.43c0,.32,0,.64,0,.96-.64.32-1.28.64-1.92.95-.08-.32-.16-.64-.24-.95.13-.27.27-.54.4-.81.04.09.07.19.11.28.39-.14.78-.29,1.18-.43.16,0,.32,0,.47,0Z"/>
      <path class="cls-17" d="M15.84,27.51c-.32.16-.64.32-.96.48-.42.2-.84.39-1.31.61v-.83c.58-.27,1.09-.5,1.75-.81-.85-.4-1.37-.64-1.88-.88.31,0,.63.04.93,0,1.16-.19,1.69.24,1.47,1.44Z"/>
      <path class="cls-28" d="M15.84,27.51c.22-1.2-.31-1.63-1.47-1.44-.3.05-.62,0-.93,0,.33-.16.67-.31.99-.48.24-.13.46-.3.69-.46q1.84-.04,1.21,2.38c-.16,0-.33,0-.49,0h0Z"/>
      <path class="cls-18" d="M15.84,27.51c.16,0,.33,0,.49,0,.16.08.31.16.47.25-.14.21-.28.43-.54.83-.18-.47-.3-.77-.42-1.07Z"/>
      <path class="cls-18" d="M17.76,29.43c-.16,0-.32,0-.47,0,.16-.16.32-.32.48-.48,0,.16,0,.32,0,.48Z"/>
    </g>
  </g>
</svg>